<?xml version="1.0" standalone="no"?>
<!DOCTYPE svg PUBLIC "-//W3C//DTD SVG 20010904//EN"
 "http://www.w3.org/TR/2001/REC-SVG-20010904/DTD/svg10.dtd">
<svg version="1.0" xmlns="http://www.w3.org/2000/svg"
 width="270.000000pt" height="270.000000pt" viewBox="0 0 270.000000 270.000000"
 preserveAspectRatio="xMidYMid meet">
<metadata>
Created by potrace 1.11, written by Peter Selinger 2001-2013
</metadata>
<g transform="translate(0.000000,270.000000) scale(0.100000,-0.100000)"
fill="#000000" stroke="none">
<path d="M196 2154 c-24 -23 -24 -345 0 -368 23 -24 545 -24 568 0 24 23 24
345 0 368 -13 14 -53 16 -284 16 -231 0 -271 -2 -284 -16z"/>
<path d="M1946 2154 c-24 -23 -24 -345 0 -368 23 -24 545 -24 568 0 24 23 24
345 0 368 -13 14 -53 16 -284 16 -231 0 -271 -2 -284 -16z"/>
<path d="M400 1567 c-48 -15 -126 -95 -139 -143 -25 -89 -7 -159 57 -223 95
-94 217 -95 313 -1 93 90 93 217 1 309 -67 66 -145 86 -232 58z"/>
<path d="M2150 1567 c-48 -15 -126 -95 -139 -143 -25 -89 -7 -159 57 -223 95
-94 217 -95 313 -1 93 90 93 217 1 309 -67 66 -145 86 -232 58z"/>
<path d="M778 849 c-43 -22 -78 -81 -78 -129 0 -50 35 -107 80 -130 38 -19 58
-20 570 -20 512 0 532 1 570 20 45 23 80 80 80 130 0 50 -35 107 -80 130 -38
19 -57 20 -572 20 -511 -1 -535 -2 -570 -21z"/>
</g>
</svg>
